<svg width="16" height="16" viewBox="0 0 16 16" fill="none" xmlns="http://www.w3.org/2000/svg">
<g clip-path="url(#clip0_5776_111383)">
<path d="M3.33331 10H2.66665C2.31302 10 1.97389 9.85952 1.72384 9.60948C1.47379 9.35943 1.33331 9.02029 1.33331 8.66667V2.66667C1.33331 2.31305 1.47379 1.97391 1.72384 1.72386C1.97389 1.47381 2.31302 1.33333 2.66665 1.33333H8.66665C9.02027 1.33333 9.35941 1.47381 9.60946 1.72386C9.8595 1.97391 9.99998 2.31305 9.99998 2.66667V3.33333M7.33331 6H13.3333C14.0697 6 14.6666 6.59695 14.6666 7.33333V13.3333C14.6666 14.0697 14.0697 14.6667 13.3333 14.6667H7.33331C6.59693 14.6667 5.99998 14.0697 5.99998 13.3333V7.33333C5.99998 6.59695 6.59693 6 7.33331 6Z" stroke="#A1A9BB" stroke-width="1.6" stroke-linecap="round" stroke-linejoin="round"/>
</g>
<defs>
<clipPath id="clip0_5776_111383">
<rect width="16" height="16" fill="white"/>
</clipPath>
</defs>
</svg>
