<svg width="16" height="16" viewBox="0 0 16 16" fill="none" xmlns="http://www.w3.org/2000/svg">
<path d="M6.33333 12.1667C6.33333 12.6269 6.70643 13 7.16667 13H8.83333C9.29357 13 9.66667 12.6269 9.66667 12.1667C9.66667 11.7064 9.29357 11.3333 8.83333 11.3333H7.16667C6.70643 11.3333 6.33333 11.7064 6.33333 12.1667ZM1.33333 3C0.873096 3 0.5 3.3731 0.5 3.83333C0.5 4.29357 0.873096 4.66667 1.33333 4.66667H14.6667C15.1269 4.66667 15.5 4.29357 15.5 3.83333C15.5 3.3731 15.1269 3 14.6667 3H1.33333ZM3 8C3 8.46024 3.3731 8.83333 3.83333 8.83333H12.1667C12.6269 8.83333 13 8.46024 13 8C13 7.53976 12.6269 7.16667 12.1667 7.16667H3.83333C3.3731 7.16667 3 7.53976 3 8Z" fill="#B3B3B3"/>
</svg>
