<svg width="16" height="16" viewBox="0 0 16 16" fill="none" xmlns="http://www.w3.org/2000/svg">
<path d="M0.30896 12.2857V3.71429C0.30896 3.24286 0.47696 2.83943 0.81296 2.504C1.14839 2.168 1.55182 2 2.02325 2H14.0018C14.4732 2 14.877 2.168 15.213 2.504C15.5484 2.83943 15.7161 3.24286 15.7161 3.71429V12.2857C15.7161 12.7571 15.5484 13.1609 15.213 13.4969C14.877 13.8323 14.4732 14 14.0018 14H2.02325C1.55182 14 1.14839 13.8323 0.81296 13.4969C0.47696 13.1609 0.30896 12.7571 0.30896 12.2857ZM11.1518 7.14286H14.0018V3.71429H11.1518V7.14286ZM6.58753 7.14286H9.43753V3.71429H6.58753V7.14286ZM2.02325 7.14286H4.87325V3.71429H2.02325V7.14286ZM2.02325 12.2857H4.87325V8.85714H2.02325V12.2857ZM6.58753 12.2857H9.43753V8.85714H6.58753V12.2857ZM11.1518 12.2857H14.0018V8.85714H11.1518V12.2857Z" fill="#B3B3B3"/>
</svg>
