<svg width="16" height="16" viewBox="0 0 16 16" fill="none" xmlns="http://www.w3.org/2000/svg">
<path d="M0.285706 12.2857V3.71429C0.285706 3.24286 0.45342 2.83943 0.788848 2.504C1.12485 2.168 1.52856 2 1.99999 2H14C14.4714 2 14.8751 2.168 15.2111 2.504C15.5466 2.83943 15.7143 3.24286 15.7143 3.71429V12.2857C15.7143 12.7571 15.5466 13.1609 15.2111 13.4969C14.8751 13.8323 14.4714 14 14 14H1.99999C1.52856 14 1.12485 13.8323 0.788848 13.4969C0.45342 13.1609 0.285706 12.7571 0.285706 12.2857ZM1.99999 5.42857H3.71428V3.71429H1.99999V5.42857ZM5.42856 5.42857H14V3.71429H5.42856V5.42857ZM5.42856 8.85714H14V7.14286H5.42856V8.85714ZM5.42856 12.2857H14V10.5714H5.42856V12.2857ZM1.99999 12.2857H3.71428V10.5714H1.99999V12.2857ZM1.99999 8.85714H3.71428V7.14286H1.99999V8.85714Z" fill="#B3B3B3"/>
</svg>
