<svg width="16" height="16" viewBox="0 0 16 16" fill="none" xmlns="http://www.w3.org/2000/svg">
<path fill-rule="evenodd" clip-rule="evenodd" d="M5.13333 7C5.57516 7 5.93333 7.35817 5.93333 7.8V12.8686L7.90098 10.901C8.2134 10.5886 8.71993 10.5886 9.03235 10.901C9.34477 11.2134 9.34477 11.7199 9.03235 12.0324L5.69902 15.3657C5.3866 15.6781 4.88007 15.6781 4.56765 15.3657L1.23431 12.0324C0.921895 11.7199 0.921895 11.2134 1.23431 10.901C1.54673 10.5886 2.05327 10.5886 2.36569 10.901L4.33333 12.8686V7.8C4.33333 7.35817 4.69151 7 5.13333 7Z" fill="#B3B3B3"/>
<path fill-rule="evenodd" clip-rule="evenodd" d="M10.8667 9C10.4248 9 10.0667 8.64183 10.0667 8.2L10.0667 3.13137L8.09902 5.09902C7.7866 5.41144 7.28007 5.41144 6.96765 5.09902C6.65523 4.7866 6.65523 4.28007 6.96765 3.96765L10.301 0.634315C10.6134 0.321895 11.1199 0.321895 11.4324 0.634314L14.7657 3.96765C15.0781 4.28007 15.0781 4.7866 14.7657 5.09902C14.4533 5.41144 13.9467 5.41144 13.6343 5.09902L11.6667 3.13137L11.6667 8.2C11.6667 8.64183 11.3085 9 10.8667 9Z" fill="#B3B3B3"/>
</svg>
