<svg width="32" height="32" viewBox="0 0 32 32" fill="none" xmlns="http://www.w3.org/2000/svg">
<g filter="url(#filter0_dd_6589_14445)">
<g clip-path="url(#clip0_6589_14445)">
<path d="M7.17347 9.37927C7.24811 9.40223 7.32466 9.41371 7.40217 9.42807C7.93898 9.5295 8.4672 9.66155 8.9887 9.82231C10.0193 10.14 10.6747 10.8098 10.9857 11.8423C11.1494 12.3877 11.2814 12.938 11.3886 13.4958C11.4163 13.6432 11.4355 13.8145 11.645 13.848C11.8297 13.7953 11.8469 13.6307 11.8737 13.4805C11.9742 12.9093 12.1177 12.3504 12.289 11.7964C12.6048 10.7792 13.2679 10.1304 14.286 9.8204C14.8305 9.65486 15.3807 9.52184 15.9386 9.41469C16.0869 9.38694 16.285 9.37642 16.2945 9.17738C16.3041 8.96782 16.1012 8.96495 15.9548 8.9286C15.7931 8.88841 15.6266 8.86831 15.463 8.83099C14.7348 8.66545 14.0018 8.50661 13.3665 8.08846C12.6679 7.6282 12.3713 6.91053 12.1684 6.14406C12.0459 5.68188 11.956 5.21109 11.8479 4.74509C11.8201 4.62357 11.778 4.49535 11.6201 4.50013C11.4823 4.50396 11.4421 4.62357 11.4154 4.7317C11.3675 4.92595 11.335 5.12403 11.2919 5.32017C11.1264 6.07133 10.9618 6.82631 10.5178 7.4751C10.069 8.13153 9.38004 8.40902 8.65088 8.6205C8.1686 8.7602 7.67676 8.85302 7.18683 8.95732C7.07679 8.98125 6.96292 9.02431 6.95718 9.16306C6.95239 9.30276 7.06439 9.34673 7.17347 9.37927Z" fill="#7D7FFF"/>
<path d="M9.73599 23.4586C10.1111 23.5294 10.4795 23.6213 10.845 23.7342C11.5655 23.9562 12.0229 24.4241 12.2402 25.1465C12.355 25.5274 12.4468 25.912 12.5215 26.3025C12.5406 26.4049 12.554 26.5245 12.7004 26.5484C12.8296 26.512 12.842 26.3962 12.8602 26.291C12.9301 25.892 13.0305 25.5006 13.1501 25.114C13.3702 24.403 13.8343 23.9495 14.5462 23.7332C14.9271 23.6174 15.3108 23.5246 15.7012 23.45C15.8045 23.4299 15.9433 23.4232 15.95 23.2844C15.9567 23.138 15.8141 23.1361 15.7127 23.1103C15.5998 23.0825 15.483 23.0682 15.3692 23.0424C14.8601 22.9266 14.3482 22.8156 13.9042 22.5237C13.4161 22.2022 13.2085 21.7008 13.0669 21.1649C12.9817 20.8415 12.9186 20.5133 12.843 20.187C12.8238 20.1018 12.7942 20.0128 12.6841 20.0157C12.5875 20.0186 12.5597 20.1018 12.5415 20.1774C12.508 20.3133 12.4851 20.452 12.4554 20.5889C12.3396 21.1142 12.2248 21.6415 11.9148 22.095C11.6009 22.5534 11.1196 22.7476 10.6096 22.895C10.2728 22.9926 9.92926 23.0576 9.58667 23.1304C9.50916 23.1466 9.42974 23.1773 9.42592 23.2739C9.42209 23.3715 9.50055 23.4021 9.57615 23.426C9.62878 23.4394 9.6824 23.4481 9.73599 23.4586Z" fill="#7D7FFF"/>
<path d="M14.3148 15.8728C14.3062 16.0785 14.4708 16.1427 14.6306 16.1915C14.7396 16.225 14.8526 16.2422 14.9645 16.2632C15.7511 16.4116 16.5252 16.6048 17.2907 16.8412C18.8017 17.3072 19.7624 18.289 20.2178 19.8038C20.458 20.6028 20.6513 21.4095 20.8082 22.2276C20.8494 22.4429 20.8771 22.6945 21.1843 22.7443C21.4541 22.6668 21.4809 22.4257 21.5192 22.2056C21.6666 21.3683 21.8761 20.5483 22.1278 19.7359C22.59 18.245 23.5631 17.2939 25.0558 16.8394C25.8539 16.5964 26.6605 16.4011 27.4787 16.2452C27.6959 16.204 27.9868 16.1887 28.0002 15.8969C28.0145 15.5897 27.716 15.5849 27.5026 15.5323C27.2653 15.4739 27.0213 15.4433 26.7821 15.3888C25.7151 15.1457 24.6405 14.9141 23.7075 14.2998C22.6837 13.6252 22.2483 12.5726 21.9507 11.4492C21.7717 10.7717 21.6397 10.0818 21.4808 9.39855C21.4397 9.22057 21.3775 9.03301 21.1469 9.03973C20.944 9.04547 20.8856 9.22058 20.8474 9.37846C20.7775 9.66362 20.7297 9.95452 20.6665 10.2406C20.4244 11.342 20.1823 12.4491 19.5316 13.3994C18.8733 14.3621 17.8628 14.7687 16.7939 15.0778C16.0868 15.2826 15.3662 15.4194 14.6476 15.5716C14.4897 15.607 14.3244 15.6709 14.3148 15.8728Z" fill="#7D7FFF"/>
</g>
</g>
<defs>
<filter id="filter0_dd_6589_14445" x="0" y="0" width="32" height="32" filterUnits="userSpaceOnUse" color-interpolation-filters="sRGB">
<feFlood flood-opacity="0" result="BackgroundImageFix"/>
<feColorMatrix in="SourceAlpha" type="matrix" values="0 0 0 0 0 0 0 0 0 0 0 0 0 0 0 0 0 0 127 0" result="hardAlpha"/>
<feOffset dy="1"/>
<feGaussianBlur stdDeviation="2"/>
<feComposite in2="hardAlpha" operator="out"/>
<feColorMatrix type="matrix" values="0 0 0 0 0.0470588 0 0 0 0 0.0470588 0 0 0 0 0.0509804 0 0 0 0.05 0"/>
<feBlend mode="normal" in2="BackgroundImageFix" result="effect1_dropShadow_6589_14445"/>
<feColorMatrix in="SourceAlpha" type="matrix" values="0 0 0 0 0 0 0 0 0 0 0 0 0 0 0 0 0 0 127 0" result="hardAlpha"/>
<feOffset dy="1"/>
<feGaussianBlur stdDeviation="2"/>
<feComposite in2="hardAlpha" operator="out"/>
<feColorMatrix type="matrix" values="0 0 0 0 0.0470588 0 0 0 0 0.0470588 0 0 0 0 0.0509804 0 0 0 0.1 0"/>
<feBlend mode="normal" in2="effect1_dropShadow_6589_14445" result="effect2_dropShadow_6589_14445"/>
<feBlend mode="normal" in="SourceGraphic" in2="effect2_dropShadow_6589_14445" result="shape"/>
</filter>
<clipPath id="clip0_6589_14445">
<rect width="24" height="24" fill="white" transform="translate(4 3)"/>
</clipPath>
</defs>
</svg>
